<mxfile host="65bd71144e">
    <diagram id="bEjX3q0p7BWj_ZRztdus" name="Page-1">
        <mxGraphModel dx="1113" dy="622" grid="1" gridSize="10" guides="1" tooltips="1" connect="1" arrows="1" fold="1" page="1" pageScale="1" pageWidth="827" pageHeight="1169" math="0" shadow="0">
            <root>
                <mxCell id="0"/>
                <mxCell id="1" parent="0"/>
                <mxCell id="2" value="STM32F401CCU6核心板" style="rounded=0;whiteSpace=wrap;html=1;fontStyle=1;fontSize=15;" parent="1" vertex="1">
                    <mxGeometry x="320" y="120" width="202" height="370" as="geometry"/>
                </mxCell>
                <mxCell id="3" value="激光测距模块" style="rounded=0;whiteSpace=wrap;html=1;fontStyle=1;fontSize=15;" parent="1" vertex="1">
                    <mxGeometry x="50" y="150" width="120" height="60" as="geometry"/>
                </mxCell>
                <mxCell id="4" value="舵机" style="rounded=0;whiteSpace=wrap;html=1;fontStyle=1;fontSize=15;" parent="1" vertex="1">
                    <mxGeometry x="10" y="240" width="190" height="160" as="geometry"/>
                </mxCell>
                <mxCell id="5" value="UART接口" style="shape=doubleArrow;whiteSpace=wrap;html=1;fontStyle=1;fontSize=15;" parent="1" vertex="1">
                    <mxGeometry x="170" y="150" width="150" height="60" as="geometry"/>
                </mxCell>
                <mxCell id="6" value="PWM" style="shape=singleArrow;direction=west;whiteSpace=wrap;html=1;fontStyle=1;fontSize=15;" parent="1" vertex="1">
                    <mxGeometry x="200" y="290" width="120" height="60" as="geometry"/>
                </mxCell>
                <mxCell id="7" value="舵机的旋转臂" style="rounded=0;whiteSpace=wrap;html=1;fontStyle=1;fontSize=15;" parent="1" vertex="1">
                    <mxGeometry x="72.5" y="210" width="75" height="30" as="geometry"/>
                </mxCell>
                <mxCell id="8" value="OLED屏幕" style="whiteSpace=wrap;html=1;aspect=fixed;fontStyle=1;fontSize=15;" parent="1" vertex="1">
                    <mxGeometry x="640" y="120" width="150" height="150" as="geometry"/>
                </mxCell>
                <mxCell id="9" value="I2C接口" style="shape=singleArrow;whiteSpace=wrap;html=1;fontStyle=1;fontSize=15;" parent="1" vertex="1">
                    <mxGeometry x="522" y="150" width="118" height="60" as="geometry"/>
                </mxCell>
                <mxCell id="10" value="红外线接收头" style="rounded=0;whiteSpace=wrap;html=1;fontStyle=1;fontSize=15;" parent="1" vertex="1">
                    <mxGeometry x="640" y="310" width="120" height="60" as="geometry"/>
                </mxCell>
                <mxCell id="11" value="UART接口" style="shape=singleArrow;direction=west;whiteSpace=wrap;html=1;fontStyle=1;fontSize=15;" parent="1" vertex="1">
                    <mxGeometry x="520" y="310" width="120" height="60" as="geometry"/>
                </mxCell>
                <mxCell id="12" value="红外线遥控器（独立部件）" style="rounded=0;whiteSpace=wrap;html=1;fontStyle=1;fontSize=15;" parent="1" vertex="1">
                    <mxGeometry x="610" y="480" width="180" height="250" as="geometry"/>
                </mxCell>
                <mxCell id="13" value="by朱思源" style="text;html=1;strokeColor=none;fillColor=none;align=center;verticalAlign=middle;whiteSpace=wrap;rounded=0;fontStyle=1;fontSize=15;" parent="1" vertex="1">
                    <mxGeometry x="384" y="120" width="76" height="30" as="geometry"/>
                </mxCell>
                <mxCell id="14" value="" style="endArrow=none;dashed=1;html=1;dashPattern=1 3;strokeWidth=2;exitX=0.5;exitY=0;exitDx=0;exitDy=0;entryX=0.5;entryY=1;entryDx=0;entryDy=0;" edge="1" parent="1" source="12" target="10">
                    <mxGeometry width="50" height="50" relative="1" as="geometry">
                        <mxPoint x="510" y="380" as="sourcePoint"/>
                        <mxPoint x="560" y="330" as="targetPoint"/>
                    </mxGeometry>
                </mxCell>
            </root>
        </mxGraphModel>
    </diagram>
</mxfile>